<?xml version="1.0" encoding="utf-8"?>
<!-- Generator: Adobe Illustrator 18.0.0, SVG Export Plug-In . SVG Version: 6.00 Build 0)  -->
<!DOCTYPE svg PUBLIC "-//W3C//DTD SVG 1.1//EN" "http://www.w3.org/Graphics/SVG/1.1/DTD/svg11.dtd">
<svg version="1.1" id="Layer_1" xmlns="http://www.w3.org/2000/svg" xmlns:xlink="http://www.w3.org/1999/xlink" x="0px" y="0px"
	 viewBox="0 0 200 50" style="enable-background:new 0 0 200 50;" xml:space="preserve">
<g>
	<g>
		<path style="fill:#0F2E56;" d="M31.81,19.05c0.17,0.33,0.27,0.69,0.27,1.08c0,1.45-1.36,2.62-3.04,2.62
			c-1.68,0-3.04-1.17-3.04-2.62c0-1.38,1.25-2.51,2.83-2.61c-1.05-0.33-2.18-0.52-3.36-0.52c-5.34,0-9.66,3.72-9.66,8.31
			c0,4.59,4.33,8.31,9.66,8.31c5.34,0,9.66-3.72,9.66-8.31C35.12,22.81,33.84,20.58,31.81,19.05z"/>
		<linearGradient id="SVGID_1_" gradientUnits="userSpaceOnUse" x1="1.1149" y1="25" x2="41.2102" y2="25">
			<stop  offset="0" style="stop-color:#D47759"/>
			<stop  offset="1" style="stop-color:#FFAC00"/>
		</linearGradient>
		<path style="fill:url(#SVGID_1_);" d="M37.65,32.86c-1.99-0.83-4.29-0.47-5.92,0.93c-2.03,1.74-4.66,2.8-7.54,2.8
			c-6.59,0-11.89-5.49-11.58-12.14c0.28-5.95,5.12-10.77,11.07-11.03c3.07-0.13,5.9,0.94,8.04,2.78c1.64,1.41,3.93,1.77,5.93,0.94
			l0,0c3.94-1.63,4.81-6.86,1.57-9.64c-4.03-3.47-9.26-5.56-14.99-5.58C11.48,1.9,1.11,12.25,1.11,25
			c0,12.74,10.33,23.07,23.07,23.07c5.75,0,11.01-2.1,15.05-5.59C42.46,39.71,41.59,34.49,37.65,32.86L37.65,32.86z"/>
		<radialGradient id="SVGID_2_" cx="5.3156" cy="25.1696" r="20.8901" gradientUnits="userSpaceOnUse">
			<stop  offset="4.922190e-007" style="stop-color:#FFAC00"/>
			<stop  offset="1" style="stop-color:#D47759"/>
		</radialGradient>
		<path style="fill:url(#SVGID_2_);" d="M33.45,32.78c-0.62,0.23-1.2,0.57-1.71,1.01c-2.03,1.74-4.66,2.8-7.54,2.8
			c-6.59,0-11.89-5.49-11.58-12.14c0.28-5.95,5.12-10.77,11.07-11.03c3.07-0.13,5.9,0.94,8.04,2.78c0.4,0.34,0.84,0.62,1.3,0.84
			c-2.91-5.22-8.48-8.75-14.88-8.75c-9.35,0-16.94,7.54-17.03,16.87c0,0.69,0.04,1.38,0.1,2.05c0.94,8.51,8.16,15.13,16.92,15.13
			C24.87,42.34,30.68,38.44,33.45,32.78z"/>
	</g>
	<g>
		<g>
			<path style="fill:#0F3054;" d="M63.74,22.59h-3.59c-0.14-0.92-0.53-1.65-1.18-2.18c-0.65-0.53-1.46-0.79-2.43-0.79
				c-1.3,0-2.34,0.48-3.13,1.43c-0.78,0.95-1.18,2.3-1.18,4.05c0,1.79,0.39,3.15,1.18,4.09c0.79,0.93,1.82,1.4,3.09,1.4
				c0.95,0,1.75-0.25,2.4-0.74c0.66-0.49,1.07-1.19,1.24-2.09l3.59,0.02c-0.13,1.03-0.49,1.99-1.1,2.9
				c-0.61,0.91-1.43,1.64-2.47,2.2c-1.04,0.56-2.28,0.84-3.72,0.84c-1.5,0-2.83-0.34-4.01-1.02c-1.18-0.68-2.11-1.66-2.79-2.94
				c-0.68-1.28-1.02-2.84-1.02-4.66c0-1.83,0.34-3.39,1.03-4.67c0.69-1.28,1.62-2.26,2.8-2.94c1.18-0.67,2.51-1.01,3.98-1.01
				c1.3,0,2.46,0.24,3.5,0.72c1.04,0.48,1.89,1.17,2.56,2.08C63.17,20.2,63.58,21.3,63.74,22.59z"/>
			<path style="fill:#0F3054;" d="M74.29,28.14v-7.23h3.49V33.5h-3.35v-2.29H74.3c-0.28,0.74-0.76,1.33-1.41,1.78
				c-0.66,0.45-1.46,0.67-2.41,0.67c-1.27,0-2.29-0.42-3.08-1.27c-0.78-0.84-1.18-2-1.18-3.47v-8.01h3.49v7.39
				c0.01,0.74,0.2,1.33,0.6,1.76c0.39,0.43,0.92,0.65,1.58,0.65c0.63,0,1.19-0.22,1.68-0.66S74.3,28.98,74.29,28.14z"/>
			<path style="fill:#0F3054;" d="M91.04,24.5l-3.2,0.2c-0.09-0.4-0.31-0.75-0.66-1.04s-0.84-0.43-1.44-0.43
				c-0.54,0-1,0.11-1.37,0.34c-0.37,0.23-0.56,0.53-0.55,0.91c-0.01,0.3,0.11,0.55,0.36,0.76c0.24,0.21,0.66,0.37,1.24,0.5
				l2.28,0.46c2.42,0.5,3.63,1.63,3.64,3.41c0,0.83-0.24,1.55-0.73,2.17c-0.48,0.62-1.15,1.11-1.99,1.45s-1.81,0.52-2.89,0.52
				c-1.67,0-2.99-0.35-3.98-1.04c-0.99-0.7-1.57-1.65-1.73-2.85l3.43-0.18c0.11,0.51,0.36,0.9,0.76,1.16
				c0.4,0.26,0.91,0.39,1.53,0.39c0.61,0,1.11-0.12,1.48-0.36c0.37-0.24,0.56-0.55,0.57-0.92c-0.02-0.62-0.55-1.04-1.61-1.25
				l-2.18-0.43c-2.44-0.49-3.65-1.69-3.64-3.6c-0.01-1.21,0.48-2.17,1.45-2.87c0.98-0.7,2.27-1.05,3.88-1.05
				c1.59,0,2.84,0.34,3.76,1.01C90.35,22.43,90.89,23.34,91.04,24.5z"/>
			<path style="fill:#0F3054;" d="M100.23,20.91v2.62h-2.37v6.1c0,0.48,0.11,0.81,0.33,0.98c0.22,0.17,0.5,0.25,0.85,0.25
				c0.16,0,0.33-0.02,0.49-0.05c0.16-0.03,0.29-0.05,0.38-0.07l0.55,2.6c-0.17,0.05-0.42,0.12-0.74,0.19
				c-0.32,0.07-0.7,0.12-1.16,0.14c-1.27,0.05-2.29-0.22-3.05-0.82c-0.77-0.6-1.15-1.52-1.14-2.76v-6.56h-1.72v-2.62h1.72V17.9h3.49
				v3.02H100.23z"/>
			<path style="fill:#0F3054;" d="M108.06,33.75c-1.27,0-2.37-0.27-3.3-0.82c-0.93-0.54-1.64-1.3-2.14-2.28
				c-0.5-0.98-0.75-2.11-0.75-3.4c0-1.3,0.25-2.44,0.75-3.41c0.5-0.98,1.22-1.73,2.14-2.28s2.03-0.82,3.3-0.82
				c1.27,0,2.37,0.27,3.3,0.82c0.93,0.54,1.64,1.3,2.14,2.28c0.5,0.98,0.75,2.11,0.75,3.41c0,1.29-0.25,2.42-0.75,3.4
				c-0.5,0.97-1.22,1.73-2.14,2.28C110.43,33.48,109.33,33.75,108.06,33.75z M108.07,31.04c0.86,0,1.52-0.36,1.96-1.08
				c0.45-0.72,0.67-1.63,0.67-2.73c0-1.1-0.22-2.01-0.67-2.73c-0.45-0.72-1.1-1.09-1.96-1.09c-0.88,0-1.54,0.36-1.99,1.09
				c-0.45,0.72-0.67,1.63-0.67,2.73c0,1.1,0.22,2.01,0.67,2.73C106.53,30.68,107.19,31.04,108.07,31.04z"/>
			<path style="fill:#0F3054;" d="M116.53,33.5V20.91h3.33v2.22H120c0.26-0.74,0.7-1.33,1.32-1.75c0.61-0.42,1.35-0.64,2.19-0.64
				c0.86,0,1.6,0.21,2.2,0.64c0.61,0.43,1.01,1.01,1.21,1.74h0.13c0.26-0.72,0.72-1.3,1.4-1.73s1.47-0.65,2.4-0.65
				c1.17,0,2.13,0.37,2.86,1.12c0.73,0.75,1.1,1.8,1.1,3.17v8.47h-3.48v-7.78c0-0.7-0.19-1.22-0.56-1.57
				c-0.37-0.35-0.84-0.52-1.39-0.52c-0.63,0-1.13,0.2-1.48,0.61c-0.36,0.4-0.53,0.93-0.53,1.58v7.69h-3.38v-7.85
				c0-0.62-0.18-1.11-0.53-1.48c-0.35-0.37-0.82-0.55-1.39-0.55c-0.58,0-1.07,0.21-1.46,0.64c-0.39,0.42-0.59,0.98-0.59,1.68v7.56
				H116.53z"/>
			<path style="fill:#0F3054;" d="M143.31,33.75c-1.29,0-2.4-0.26-3.34-0.79c-0.93-0.53-1.65-1.28-2.16-2.25
				c-0.5-0.97-0.75-2.12-0.75-3.45c0-1.3,0.25-2.43,0.75-3.41c0.5-0.98,1.21-1.74,2.13-2.29c0.91-0.55,1.99-0.82,3.22-0.82
				c1.11,0,2.11,0.23,3,0.7c0.89,0.47,1.6,1.18,2.13,2.13c0.52,0.95,0.79,2.14,0.79,3.56v0.96h-8.57v0.01
				c0,0.94,0.26,1.68,0.77,2.22c0.51,0.54,1.21,0.81,2.08,0.81c0.58,0,1.09-0.12,1.52-0.37c0.43-0.25,0.73-0.61,0.9-1.09l3.23,0.21
				c-0.25,1.17-0.87,2.1-1.87,2.8C146.15,33.4,144.87,33.75,143.31,33.75z M140.52,25.94h5.29c-0.01-0.75-0.25-1.37-0.72-1.85
				c-0.48-0.49-1.09-0.73-1.85-0.73c-0.78,0-1.41,0.25-1.91,0.75C140.82,24.61,140.56,25.22,140.52,25.94z"/>
			<path style="fill:#0F3054;" d="M151.37,33.5V20.91h3.38v2.2h0.13c0.23-0.78,0.61-1.37,1.15-1.77c0.54-0.4,1.16-0.6,1.87-0.6
				c0.34,0,0.65,0.04,0.94,0.12c0.29,0.08,0.55,0.19,0.78,0.34l-1.05,2.88c-0.16-0.08-0.34-0.15-0.54-0.21
				c-0.19-0.06-0.41-0.09-0.65-0.09c-0.7,0-1.3,0.24-1.79,0.72c-0.49,0.48-0.74,1.11-0.74,1.88v7.12H151.37z"/>
			<path style="fill:#FFAC00;" d="M166.41,33.75c-1.29,0-2.4-0.26-3.34-0.79c-0.93-0.53-1.65-1.28-2.16-2.25
				c-0.5-0.97-0.75-2.12-0.75-3.45c0-1.3,0.25-2.43,0.75-3.41c0.5-0.98,1.21-1.74,2.13-2.29c0.91-0.55,1.99-0.82,3.22-0.82
				c1.11,0,2.11,0.23,3,0.7c0.89,0.47,1.6,1.18,2.13,2.13c0.52,0.95,0.79,2.14,0.79,3.56v0.96h-8.57v0.01
				c0,0.94,0.26,1.68,0.77,2.22c0.51,0.54,1.21,0.81,2.08,0.81c0.58,0,1.09-0.12,1.52-0.37c0.43-0.25,0.73-0.61,0.9-1.09l3.23,0.21
				c-0.25,1.17-0.87,2.1-1.87,2.8C169.24,33.4,167.96,33.75,166.41,33.75z M163.61,25.94h5.29c-0.01-0.75-0.25-1.37-0.72-1.85
				c-0.48-0.49-1.09-0.73-1.85-0.73c-0.78,0-1.41,0.25-1.91,0.75C163.92,24.61,163.65,25.22,163.61,25.94z"/>
			<path style="fill:#FFAC00;" d="M176.3,38.4c-0.5,0-0.92-0.04-1.27-0.13c-0.35-0.08-0.63-0.17-0.82-0.26l0.79-2.7
				c0.62,0.19,1.14,0.23,1.56,0.15c0.42-0.09,0.76-0.42,1-0.99l0.23-0.61l-4.52-12.95h3.67l2.61,9.24h0.13l2.63-9.24h3.7
				l-4.92,14.03c-0.36,1.01-0.92,1.83-1.7,2.48C178.61,38.08,177.58,38.4,176.3,38.4z"/>
			<path style="fill:#FFAC00;" d="M193.11,33.75c-1.29,0-2.4-0.26-3.34-0.79c-0.93-0.53-1.65-1.28-2.16-2.25
				c-0.5-0.97-0.75-2.12-0.75-3.45c0-1.3,0.25-2.43,0.75-3.41c0.5-0.98,1.21-1.74,2.13-2.29c0.91-0.55,1.99-0.82,3.22-0.82
				c1.11,0,2.11,0.23,3,0.7c0.89,0.47,1.6,1.18,2.13,2.13c0.52,0.95,0.79,2.14,0.79,3.56v0.96h-8.57v0.01
				c0,0.94,0.26,1.68,0.77,2.22c0.51,0.54,1.21,0.81,2.08,0.81c0.58,0,1.09-0.12,1.52-0.37c0.43-0.25,0.73-0.61,0.9-1.09l3.23,0.21
				c-0.25,1.17-0.87,2.1-1.87,2.8C195.94,33.4,194.66,33.75,193.11,33.75z M190.31,25.94h5.29c-0.01-0.75-0.25-1.37-0.72-1.85
				c-0.48-0.49-1.09-0.73-1.85-0.73c-0.78,0-1.41,0.25-1.91,0.75C190.62,24.61,190.35,25.22,190.31,25.94z"/>
		</g>
	</g>
</g>
</svg>
