<?xml version="1.0" encoding="utf-8"?>
<!-- Generator: Adobe Illustrator 18.0.0, SVG Export Plug-In . SVG Version: 6.00 Build 0)  -->
<!DOCTYPE svg PUBLIC "-//W3C//DTD SVG 1.1//EN" "http://www.w3.org/Graphics/SVG/1.1/DTD/svg11.dtd">
<svg version="1.1" id="Layer_1" xmlns="http://www.w3.org/2000/svg" xmlns:xlink="http://www.w3.org/1999/xlink" x="0px" y="0px"
	 viewBox="0 0 1300 1000" style="enable-background:new 0 0 1300 1000;" xml:space="preserve">
<g>
	<g>
		<path style="fill:#0F2E56;" d="M435.62,481.31c0.54,1.03,0.86,2.18,0.86,3.39c0,4.54-4.28,8.23-9.57,8.23
			c-5.29,0-9.57-3.68-9.57-8.23c0-4.35,3.93-7.9,8.9-8.2c-3.29-1.05-6.85-1.63-10.57-1.63c-16.77,0-30.37,11.69-30.37,26.12
			c0,14.42,13.6,26.12,30.37,26.12c16.77,0,30.37-11.69,30.37-26.12C446.03,493.13,442,486.09,435.62,481.31z"/>
		<linearGradient id="SVGID_1_" gradientUnits="userSpaceOnUse" x1="339.1258" y1="500" x2="465.1771" y2="500">
			<stop  offset="0" style="stop-color:#D47759"/>
			<stop  offset="1" style="stop-color:#FFAC00"/>
		</linearGradient>
		<path style="fill:url(#SVGID_1_);" d="M454,524.71c-6.26-2.6-13.47-1.48-18.61,2.94c-6.37,5.48-14.66,8.79-23.72,8.79
			c-20.71,0-37.38-17.27-36.4-38.18c0.87-18.71,16.1-33.87,34.81-34.66c9.67-0.41,18.54,2.95,25.28,8.73
			c5.16,4.42,12.36,5.56,18.64,2.96l0,0c12.38-5.13,15.11-21.55,4.95-30.3c-12.66-10.89-29.12-17.49-47.13-17.53
			c-40.1-0.08-72.69,32.45-72.69,72.54c0,40.06,32.48,72.53,72.54,72.53c18.08,0,34.62-6.62,47.32-17.56
			C469.12,546.24,466.36,529.83,454,524.71L454,524.71z"/>
		<radialGradient id="SVGID_2_" cx="352.332" cy="500.5331" r="65.674" gradientUnits="userSpaceOnUse">
			<stop  offset="4.922190e-007" style="stop-color:#FFAC00"/>
			<stop  offset="1" style="stop-color:#D47759"/>
		</radialGradient>
		<path style="fill:url(#SVGID_2_);" d="M440.77,524.47c-1.94,0.72-3.77,1.79-5.39,3.18c-6.37,5.48-14.66,8.79-23.72,8.79
			c-20.71,0-37.38-17.27-36.4-38.18c0.87-18.71,16.1-33.87,34.81-34.66c9.67-0.41,18.54,2.95,25.28,8.73
			c1.26,1.08,2.64,1.96,4.09,2.64c-9.14-16.41-26.67-27.52-46.79-27.52c-29.4,0-53.26,23.7-53.53,53.04
			c0.01,2.18,0.12,4.33,0.33,6.45c2.97,26.76,25.65,47.57,53.2,47.57C413.8,554.51,432.07,542.26,440.77,524.47z"/>
	</g>
	<g>
		<g>
			<path style="fill:#0F3054;" d="M535.99,492.43h-11.29c-0.43-2.9-1.67-5.18-3.71-6.84c-2.04-1.66-4.59-2.49-7.65-2.49
				c-4.09,0-7.36,1.5-9.83,4.5c-2.47,3-3.7,7.25-3.7,12.74c0,5.63,1.24,9.92,3.72,12.84c2.48,2.93,5.72,4.39,9.73,4.39
				c2.97,0,5.49-0.78,7.55-2.33c2.06-1.55,3.36-3.74,3.89-6.56l11.29,0.05c-0.39,3.23-1.55,6.27-3.45,9.12
				c-1.91,2.85-4.5,5.16-7.77,6.93c-3.27,1.77-7.17,2.65-11.69,2.65c-4.71,0-8.91-1.06-12.61-3.19c-3.7-2.13-6.62-5.21-8.76-9.25
				c-2.14-4.04-3.21-8.92-3.21-14.66c0-5.75,1.08-10.65,3.25-14.69c2.16-4.04,5.1-7.12,8.81-9.24c3.71-2.12,7.88-3.18,12.52-3.18
				c4.07,0,7.74,0.75,11.01,2.25c3.27,1.5,5.95,3.68,8.04,6.54C534.23,484.9,535.51,488.36,535.99,492.43z"/>
			<path style="fill:#0F3054;" d="M569.18,509.88v-22.72h10.98v39.57h-10.54v-7.19h-0.41c-0.89,2.32-2.37,4.18-4.45,5.59
				c-2.07,1.41-4.59,2.11-7.56,2.11c-3.98,0-7.21-1.33-9.67-3.98c-2.47-2.65-3.71-6.29-3.72-10.91v-25.2h10.98v23.24
				c0.02,2.34,0.64,4.18,1.88,5.54c1.24,1.36,2.89,2.04,4.97,2.04c1.97,0,3.73-0.69,5.27-2.06
				C568.43,514.53,569.19,512.52,569.18,509.88z"/>
			<path style="fill:#0F3054;" d="M621.84,498.44l-10.05,0.62c-0.27-1.27-0.97-2.36-2.09-3.27c-1.12-0.91-2.63-1.37-4.53-1.37
				c-1.7,0-3.14,0.36-4.32,1.07c-1.18,0.71-1.76,1.66-1.74,2.85c-0.02,0.94,0.36,1.74,1.12,2.4c0.76,0.65,2.07,1.18,3.9,1.57
				l7.16,1.44c7.61,1.56,11.42,5.14,11.44,10.72c0,2.59-0.76,4.87-2.28,6.83c-1.52,1.96-3.6,3.48-6.25,4.57
				c-2.65,1.09-5.68,1.64-9.1,1.64c-5.24,0-9.41-1.09-12.52-3.28c-3.11-2.19-4.92-5.17-5.44-8.95l10.8-0.57
				c0.34,1.62,1.14,2.83,2.38,3.66c1.25,0.83,2.85,1.24,4.8,1.24c1.92,0,3.47-0.38,4.65-1.13c1.18-0.76,1.77-1.72,1.79-2.89
				c-0.05-1.96-1.74-3.27-5.08-3.94l-6.85-1.36c-7.66-1.53-11.47-5.3-11.44-11.31c-0.02-3.81,1.51-6.82,4.57-9.02
				c3.07-2.2,7.13-3.3,12.2-3.3c5,0,8.94,1.06,11.81,3.17C619.68,491.92,621.36,494.79,621.84,498.44z"/>
			<path style="fill:#0F3054;" d="M650.72,487.15v8.24h-7.45v19.17c0,1.51,0.34,2.53,1.03,3.07c0.69,0.53,1.58,0.8,2.68,0.8
				c0.52,0,1.03-0.05,1.55-0.14c0.52-0.09,0.91-0.17,1.18-0.22l1.73,8.17c-0.55,0.17-1.32,0.37-2.32,0.6
				c-1,0.23-2.21,0.37-3.63,0.43c-3.98,0.17-7.18-0.69-9.6-2.59c-2.41-1.9-3.61-4.79-3.59-8.67V495.4h-5.41v-8.24h5.41v-9.48h10.98
				v9.48H650.72z"/>
			<path style="fill:#0F3054;" d="M675.32,527.5c-4,0-7.46-0.85-10.37-2.56c-2.91-1.71-5.16-4.1-6.74-7.16
				c-1.58-3.07-2.37-6.63-2.37-10.68c0-4.09,0.79-7.66,2.37-10.73c1.58-3.07,3.83-5.45,6.74-7.16c2.91-1.71,6.37-2.56,10.37-2.56
				c4,0,7.46,0.85,10.37,2.56c2.91,1.71,5.16,4.1,6.74,7.16c1.58,3.07,2.37,6.64,2.37,10.73c0,4.05-0.79,7.61-2.37,10.68
				c-1.58,3.07-3.83,5.45-6.74,7.16C682.78,526.64,679.33,527.5,675.32,527.5z M675.38,519c2.71,0,4.77-1.13,6.17-3.4
				c1.4-2.27,2.1-5.13,2.1-8.58c0-3.45-0.7-6.32-2.1-8.59c-1.4-2.28-3.46-3.41-6.17-3.41c-2.77,0-4.85,1.14-6.26,3.41
				c-1.41,2.28-2.11,5.14-2.11,8.59c0,3.45,0.7,6.31,2.11,8.58C670.52,517.86,672.61,519,675.38,519z"/>
			<path style="fill:#0F3054;" d="M701.97,526.73v-39.57h10.46v6.98h0.46c0.82-2.34,2.2-4.17,4.14-5.5c1.93-1.33,4.23-2,6.89-2
				c2.71,0,5.02,0.67,6.93,2.02c1.91,1.35,3.18,3.17,3.81,5.47h0.41c0.81-2.27,2.27-4.08,4.39-5.45c2.12-1.37,4.63-2.05,7.54-2.05
				c3.69,0,6.69,1.17,9,3.52c2.31,2.34,3.47,5.66,3.47,9.96v26.61h-10.95v-24.45c0-2.2-0.58-3.85-1.75-4.95
				c-1.17-1.1-2.63-1.65-4.38-1.65c-1.99,0-3.55,0.64-4.66,1.91c-1.12,1.27-1.67,2.93-1.67,4.97v24.17h-10.64v-24.68
				c0-1.94-0.55-3.49-1.66-4.64c-1.11-1.15-2.56-1.73-4.37-1.73c-1.82,0-3.35,0.67-4.59,2c-1.24,1.33-1.86,3.1-1.86,5.3v23.75
				H701.97z"/>
			<path style="fill:#0F3054;" d="M786.16,527.5c-4.05,0-7.55-0.83-10.49-2.49c-2.94-1.66-5.2-4.01-6.78-7.06
				c-1.58-3.05-2.37-6.66-2.37-10.83c0-4.07,0.79-7.64,2.37-10.72c1.58-3.07,3.81-5.47,6.69-7.19c2.88-1.72,6.26-2.58,10.14-2.58
				c3.49,0,6.63,0.74,9.44,2.22c2.81,1.48,5.04,3.71,6.69,6.69c1.65,2.98,2.47,6.71,2.47,11.19v3.02h-26.95v0.03
				c0,2.95,0.81,5.28,2.42,6.98c1.62,1.7,3.8,2.55,6.54,2.55c1.84,0,3.43-0.39,4.77-1.16s2.28-1.91,2.83-3.43l10.15,0.67
				c-0.77,3.68-2.73,6.61-5.88,8.81C795.08,526.4,791.06,527.5,786.16,527.5z M777.38,502.95H794c-0.02-2.35-0.77-4.29-2.27-5.82
				c-1.49-1.53-3.43-2.29-5.82-2.29c-2.44,0-4.44,0.79-6,2.37C778.34,498.78,777.5,500.7,777.38,502.95z"/>
			<path style="fill:#0F3054;" d="M811.49,526.73v-39.57h10.64v6.9h0.41c0.72-2.46,1.93-4.32,3.62-5.58
				c1.69-1.26,3.65-1.89,5.89-1.89c1.07,0,2.05,0.13,2.96,0.39c0.91,0.26,1.73,0.61,2.45,1.06l-3.3,9.07
				c-0.52-0.26-1.08-0.48-1.69-0.66c-0.61-0.18-1.29-0.27-2.05-0.27c-2.22,0-4.09,0.76-5.63,2.27c-1.54,1.51-2.31,3.48-2.33,5.9
				v22.39H811.49z"/>
			<path style="fill:#FFAC00;" d="M858.77,527.5c-4.05,0-7.55-0.83-10.49-2.49c-2.94-1.66-5.2-4.01-6.78-7.06
				c-1.58-3.05-2.37-6.66-2.37-10.83c0-4.07,0.79-7.64,2.37-10.72c1.58-3.07,3.81-5.47,6.69-7.19c2.88-1.72,6.26-2.58,10.14-2.58
				c3.49,0,6.63,0.74,9.44,2.22c2.81,1.48,5.04,3.71,6.69,6.69c1.65,2.98,2.47,6.71,2.47,11.19v3.02h-26.95v0.03
				c0,2.95,0.81,5.28,2.42,6.98c1.62,1.7,3.8,2.55,6.54,2.55c1.84,0,3.43-0.39,4.77-1.16c1.34-0.77,2.28-1.91,2.83-3.43l10.15,0.67
				c-0.77,3.68-2.73,6.61-5.88,8.81C867.68,526.4,863.66,527.5,858.77,527.5z M849.98,502.95h16.62c-0.02-2.35-0.77-4.29-2.27-5.82
				c-1.49-1.53-3.44-2.29-5.82-2.29c-2.44,0-4.44,0.79-6,2.37C850.94,498.78,850.1,500.7,849.98,502.95z"/>
			<path style="fill:#FFAC00;" d="M889.87,542.13c-1.56,0-2.9-0.13-4.01-0.4c-1.11-0.27-1.97-0.54-2.59-0.81l2.47-8.5
				c1.94,0.58,3.58,0.74,4.91,0.46c1.33-0.27,2.38-1.31,3.16-3.12l0.72-1.91l-14.2-40.71h11.54l8.19,29.06h0.41l8.27-29.06h11.62
				l-15.46,44.11c-1.12,3.16-2.9,5.76-5.35,7.81C897.12,541.11,893.89,542.13,889.87,542.13z"/>
			<path style="fill:#FFAC00;" d="M942.71,527.5c-4.05,0-7.55-0.83-10.49-2.49c-2.94-1.66-5.2-4.01-6.78-7.06
				c-1.58-3.05-2.37-6.66-2.37-10.83c0-4.07,0.79-7.64,2.37-10.72c1.58-3.07,3.81-5.47,6.69-7.19c2.88-1.72,6.26-2.58,10.14-2.58
				c3.49,0,6.63,0.74,9.44,2.22c2.81,1.48,5.04,3.71,6.69,6.69c1.65,2.98,2.47,6.71,2.47,11.19v3.02h-26.95v0.03
				c0,2.95,0.81,5.28,2.42,6.98c1.62,1.7,3.8,2.55,6.54,2.55c1.84,0,3.43-0.39,4.77-1.16s2.28-1.91,2.83-3.43l10.15,0.67
				c-0.77,3.68-2.73,6.61-5.88,8.81C951.63,526.4,947.61,527.5,942.71,527.5z M933.93,502.95h16.62c-0.02-2.35-0.77-4.29-2.27-5.82
				c-1.49-1.53-3.44-2.29-5.82-2.29c-2.44,0-4.44,0.79-6,2.37C934.89,498.78,934.04,500.7,933.93,502.95z"/>
		</g>
	</g>
</g>
</svg>
